<?xml version="1.0" encoding="UTF-8"?>
<svg id="Layer_1" xmlns="http://www.w3.org/2000/svg" xmlns:xlink="http://www.w3.org/1999/xlink" version="1.1" viewBox="0 0 3037.562 909.095">
  <!-- Generator: Adobe Illustrator 29.0.1, SVG Export Plug-In . SVG Version: 2.1.0 Build 192)  -->
  <defs>
    <linearGradient id="linear-gradient" x1="1019.671" y1="656.875" x2="1092.752" y2="729.956" gradientUnits="userSpaceOnUse">
      <stop offset=".132" stop-color="#639"/>
      <stop offset=".334" stop-color="#8844a1"/>
      <stop offset=".51" stop-color="#a050a7"/>
      <stop offset=".62" stop-color="#a955aa"/>
    </linearGradient>
    <linearGradient id="linear-gradient1" x1="1132.673" y1="662.542" x2="1194.291" y2="724.16" xlink:href="#linear-gradient"/>
    <linearGradient id="linear-gradient2" x1="1202.421" y1="670.283" x2="1249.71" y2="717.571" xlink:href="#linear-gradient"/>
    <linearGradient id="linear-gradient3" x1="1268.136" y1="666.797" x2="1335.811" y2="734.472" xlink:href="#linear-gradient"/>
    <linearGradient id="linear-gradient4" x1="1349.935" y1="659.251" x2="1428.42" y2="737.736" xlink:href="#linear-gradient"/>
    <linearGradient id="linear-gradient5" x1="1438.771" y1="659.251" x2="1517.256" y2="737.736" xlink:href="#linear-gradient"/>
    <linearGradient id="linear-gradient6" x1="1545.288" y1="660.983" x2="1610.198" y2="725.892" xlink:href="#linear-gradient"/>
    <linearGradient id="linear-gradient7" x1="1633.179" y1="661.067" x2="1695.321" y2="723.208" xlink:href="#linear-gradient"/>
    <linearGradient id="linear-gradient8" x1="1687.603" y1="661.067" x2="1749.745" y2="723.208" xlink:href="#linear-gradient"/>
    <linearGradient id="linear-gradient9" x1="1763.313" y1="660.983" x2="1828.223" y2="725.892" xlink:href="#linear-gradient"/>
    <linearGradient id="linear-gradient10" x1="1903.192" y1="670.283" x2="1950.48" y2="717.571" xlink:href="#linear-gradient"/>
    <linearGradient id="linear-gradient11" x1="1956.833" y1="665.118" x2="2013.474" y2="721.759" xlink:href="#linear-gradient"/>
    <linearGradient id="linear-gradient12" x1="2022.519" y1="667.258" x2="2089.889" y2="734.628" xlink:href="#linear-gradient"/>
    <linearGradient id="linear-gradient13" x1="2148.633" y1="650.214" x2="2215.22" y2="716.801" xlink:href="#linear-gradient"/>
    <linearGradient id="linear-gradient14" x1="2231.569" y1="666.796" x2="2299.243" y2="734.471" xlink:href="#linear-gradient"/>
    <linearGradient id="linear-gradient15" x1="2319.275" y1="667.258" x2="2386.645" y2="734.628" xlink:href="#linear-gradient"/>
    <linearGradient id="linear-gradient16" x1="2402.158" y1="650.214" x2="2468.746" y2="716.801" xlink:href="#linear-gradient"/>
    <linearGradient id="linear-gradient17" x1="2496.568" y1="660.983" x2="2561.478" y2="725.892" xlink:href="#linear-gradient"/>
    <linearGradient id="linear-gradient18" x1="2631.296" y1="659.251" x2="2709.781" y2="737.736" xlink:href="#linear-gradient"/>
    <linearGradient id="linear-gradient19" x1="2737.812" y1="660.983" x2="2802.722" y2="725.892" xlink:href="#linear-gradient"/>
    <linearGradient id="linear-gradient20" x1="2825.704" y1="661.067" x2="2887.845" y2="723.208" xlink:href="#linear-gradient"/>
    <linearGradient id="linear-gradient21" x1="2880.128" y1="661.067" x2="2942.269" y2="723.208" xlink:href="#linear-gradient"/>
    <linearGradient id="linear-gradient22" x1="2955.838" y1="660.983" x2="3020.747" y2="725.892" xlink:href="#linear-gradient"/>
  </defs>
  <rect y="45.095" width="140" height="864" fill="#639"/>
  <polygon points="2874 380 2874 44 2920 44 2920 494 2554 114 2554 454 2508 454 2508 0 2874 380" fill="#639" stroke="#000" stroke-miterlimit="10" stroke-width="2"/>
  <polygon points="1064 42 1064 304 1360 304 1360 42 1406 42 1406 452 1360 452 1360 350 1064 350 1064 452 1018 452 1018 42 1064 42" fill="#639" stroke="#000" stroke-miterlimit="10" stroke-width="2"/>
  <rect x="542" y="565.095" width="138" height="344" fill="#639"/>
  <path d="M2452,38v414h-46v-120h-185l-120,120h-63l414-414ZM2406,288v-142l-140,142h140Z" fill="#639" stroke="#000" stroke-miterlimit="10" stroke-width="2"/>
  <path d="M1442,452L1854.98,37.98l-.98,414.02h-44v-120c-37.061-.377-74.015-.086-111.083.081-10.005.045-19.722-.149-29.833,0-15.032.221-30.227-1.089-45.187.815l-118.896,119.104h-63ZM1810,288v-144l-140,144h140Z" fill="#639" stroke="#000" stroke-miterlimit="10" stroke-width="2"/>
  <polygon points="680 43.095 680 375.095 542 375.095 542 46.095 545 43.095 680 43.095" fill="#639"/>
  <rect x="174" y="405.095" width="340" height="132" fill="#639"/>
  <polygon points="1958 42 1958 366 2281 42 2344 42 1912 478 1912 42 1958 42" fill="#639" stroke="#000" stroke-miterlimit="10" stroke-width="2"/>
  <rect x="2976" y="42" width="46" height="410" fill="#639" stroke="#000" stroke-miterlimit="10" stroke-width="2"/>
  <path d="M603.551,401.661c96.967-10.51,103.547,138.683,7.233,139.215-85.382.471-93.334-129.882-7.233-139.215Z" fill="#040107"/>
  <rect x="858" y="45.095" width="12" height="864" fill="#639"/>
  <path d="M1052.733,674.856v62.238h-25.97v-87.312h33.837c14.84,0,26.459,3.37,34.861,10.107,9.979,8.059,14.968,18.997,14.968,32.813,0,13.22-4.265,24.009-12.793,32.366-8.529,8.358-19.509,12.537-32.942,12.537-1.578,0-4.158-.086-7.74-.256v-25.65h4.158c15.138,0,22.708-6.332,22.708-18.997,0-11.897-7.442-17.847-22.324-17.847h-8.763Z" fill="url(#linear-gradient)" stroke="#000" stroke-miterlimit="10" stroke-width="2"/>
  <path d="M1179.693,683.748v19.445h-16.951c-2.303,0-3.934.342-4.894,1.023-.959.683-1.439,1.834-1.439,3.454,0,1.834.49,3.038,1.471,3.614.98.575,2.984.863,6.013.863h17.462v24.946h-20.405c-9.595,0-16.93-2.292-22.004-6.876-5.075-4.584-7.612-11.204-7.612-19.861v-34.222c0-8.356,2.399-14.84,7.196-19.445,4.798-4.605,11.546-6.908,20.245-6.908h22.58v25.074h-16.567c-4.478,0-6.716,1.451-6.716,4.35,0,1.707.533,2.89,1.599,3.551,1.065.661,2.963.991,5.693.991h14.328Z" fill="url(#linear-gradient1)" stroke="#000" stroke-miterlimit="10" stroke-width="2"/>
  <path d="M1247.741,649.399v24.882c-1.877-.64-3.326-.96-4.35-.96-1.962,0-3.646.727-5.053,2.176-1.407,1.45-2.111,3.197-2.111,5.244,0,1.75.768,3.967,2.303,6.652l1.983,3.455c3.582,6.227,5.373,12.239,5.373,18.037,0,8.487-3.018,15.672-9.051,21.557-6.035,5.885-13.4,8.827-22.1,8.827-4.18,0-8.315-.96-12.409-2.878v-25.267c2.473,1.578,4.669,2.366,6.588,2.366,2.26,0,4.146-.649,5.661-1.95,1.513-1.301,2.271-2.932,2.271-4.894,0-1.279-1.215-4.071-3.646-8.379-3.881-6.822-5.821-13.646-5.821-20.469,0-8.229,2.931-15.32,8.795-21.269,5.862-5.949,12.867-8.923,21.012-8.923,3.582,0,7.1.598,10.554,1.791Z" fill="url(#linear-gradient2)" stroke="#000" stroke-miterlimit="10" stroke-width="2"/>
  <path d="M1303.061,693.278v23.027h-7.484v20.789h-25.97v-55.521c0-10.746,2.931-19.094,8.795-25.042,5.862-5.949,14.104-8.923,24.722-8.923,10.234,0,17.803,2.697,22.708,8.091,4.903,5.396,7.356,13.721,7.356,24.979v56.417h-25.97v-54.689c0-3.411-.406-5.778-1.215-7.101-.811-1.321-2.261-1.983-4.35-1.983-4.052,0-6.077,3.029-6.077,9.084v10.873h7.484Z" fill="url(#linear-gradient3)" stroke="#000" stroke-miterlimit="10" stroke-width="2"/>
  <path d="M1385.373,673.258v63.837h-25.97v-87.312h33.326c10.148,0,18.016,2.518,23.603,7.549,6.226,5.629,9.339,12.771,9.339,21.428,0,8.827-3.86,16.27-11.578,22.324l14.968,36.012h-27.249l-12.601-28.145v-22.451h2.047c5.458,0,8.188-2.345,8.188-7.037,0-4.135-3.156-6.204-9.467-6.204h-4.605Z" fill="url(#linear-gradient4)" stroke="#000" stroke-miterlimit="10" stroke-width="2"/>
  <path d="M1474.209,673.258v63.837h-25.969v-87.312h33.326c10.148,0,18.016,2.518,23.603,7.549,6.226,5.629,9.34,12.771,9.34,21.428,0,8.827-3.86,16.27-11.578,22.324l14.968,36.012h-27.249l-12.602-28.145v-22.451h2.047c5.458,0,8.188-2.345,8.188-7.037,0-4.135-3.156-6.204-9.467-6.204h-4.605Z" fill="url(#linear-gradient5)" stroke="#000" stroke-miterlimit="10" stroke-width="2"/>
  <path d="M1578.462,647.608c12.366,0,22.974,4.499,31.822,13.496,8.849,8.998,13.273,19.766,13.273,32.303,0,12.751-4.457,23.582-13.369,32.494s-19.744,13.368-32.494,13.368c-12.665,0-23.475-4.478-32.429-13.433-8.955-8.955-13.434-19.766-13.434-32.43,0-12.793,4.51-23.624,13.529-32.494,9.018-8.869,20.052-13.305,33.101-13.305ZM1577.694,673.321c-5.331,0-9.873,1.963-13.625,5.885-3.753,3.925-5.629,8.658-5.629,14.201s1.888,10.277,5.661,14.199c3.774,3.925,8.305,5.885,13.593,5.885,5.373,0,9.925-1.95,13.656-5.853,3.731-3.901,5.598-8.645,5.598-14.231s-1.866-10.331-5.598-14.232c-3.731-3.902-8.283-5.854-13.656-5.854Z" fill="url(#linear-gradient6)" stroke="#000" stroke-miterlimit="10" stroke-width="2"/>
  <path d="M1644.464,649.782h25.969v51.876c0,4.052.65,6.748,1.951,8.092,1.301,1.343,3.87,2.015,7.708,2.015h1.343v25.33h-6.908c-9.467,0-16.845-2.761-22.131-8.283-5.289-5.522-7.932-13.187-7.932-22.996v-56.033Z" fill="url(#linear-gradient7)" stroke="#000" stroke-miterlimit="10" stroke-width="2"/>
  <path d="M1698.888,649.782h25.969v51.876c0,4.052.65,6.748,1.951,8.092,1.301,1.343,3.87,2.015,7.708,2.015h1.343v25.33h-6.908c-9.467,0-16.845-2.761-22.131-8.283-5.289-5.522-7.932-13.187-7.932-22.996v-56.033Z" fill="url(#linear-gradient8)" stroke="#000" stroke-miterlimit="10" stroke-width="2"/>
  <path d="M1796.487,647.608c12.366,0,22.974,4.499,31.822,13.496,8.849,8.998,13.273,19.766,13.273,32.303,0,12.751-4.457,23.582-13.369,32.494s-19.744,13.368-32.494,13.368c-12.665,0-23.475-4.478-32.43-13.433s-13.434-19.766-13.434-32.43c0-12.793,4.51-23.624,13.529-32.494,9.019-8.869,20.053-13.305,33.102-13.305ZM1795.72,673.321c-5.331,0-9.873,1.963-13.625,5.885-3.753,3.925-5.629,8.658-5.629,14.201s1.888,10.277,5.661,14.199c3.774,3.925,8.305,5.885,13.593,5.885,5.373,0,9.925-1.95,13.656-5.853,3.731-3.901,5.598-8.645,5.598-14.231s-1.866-10.331-5.598-14.232c-3.731-3.902-8.283-5.854-13.656-5.854Z" fill="url(#linear-gradient9)" stroke="#000" stroke-miterlimit="10" stroke-width="2"/>
  <path d="M1948.512,649.399v24.882c-1.877-.64-3.326-.96-4.35-.96-1.962,0-3.646.727-5.054,2.176-1.406,1.45-2.11,3.197-2.11,5.244,0,1.75.768,3.967,2.303,6.652l1.983,3.455c3.582,6.227,5.373,12.239,5.373,18.037,0,8.487-3.018,15.672-9.052,21.557s-13.4,8.827-22.1,8.827c-4.18,0-8.315-.96-12.409-2.878v-25.267c2.473,1.578,4.67,2.366,6.588,2.366,2.26,0,4.147-.649,5.661-1.95s2.271-2.932,2.271-4.894c0-1.279-1.215-4.071-3.646-8.379-3.881-6.822-5.821-13.646-5.821-20.469,0-8.229,2.932-15.32,8.796-21.269,5.862-5.949,12.866-8.923,21.013-8.923,3.582,0,7.1.598,10.554,1.791Z" fill="url(#linear-gradient10)" stroke="#000" stroke-miterlimit="10" stroke-width="2"/>
  <path d="M1998.138,649.782v87.312h-25.969v-87.312h25.969Z" fill="url(#linear-gradient11)" stroke="#000" stroke-miterlimit="10" stroke-width="2"/>
  <path d="M2024.29,737.095v-56.673c0-9.936,2.974-17.888,8.923-23.858,5.948-5.97,13.869-8.955,23.763-8.955s17.388,2.9,22.611,8.699c5.224,5.8,7.836,14.136,7.836,25.01v55.777h-25.97v-55.777c0-5.33-1.898-7.996-5.692-7.996-3.669,0-5.502,2.666-5.502,7.996v55.777h-25.969Z" fill="url(#linear-gradient12)" stroke="#000" stroke-miterlimit="10" stroke-width="2"/>
  <path d="M2194.927,674.856v62.238h-25.969v-62.238h-19.894v-25.074h65.692v25.074h-19.83Z" fill="url(#linear-gradient13)" stroke="#000" stroke-miterlimit="10" stroke-width="2"/>
  <path d="M2266.493,693.278v23.027h-7.484v20.789h-25.969v-55.521c0-10.746,2.931-19.094,8.795-25.042,5.862-5.949,14.104-8.923,24.723-8.923,10.234,0,17.803,2.697,22.707,8.091,4.903,5.396,7.355,13.721,7.355,24.979v56.417h-25.969v-54.689c0-3.411-.406-5.778-1.216-7.101-.811-1.321-2.261-1.983-4.35-1.983-4.052,0-6.077,3.029-6.077,9.084v10.873h7.484Z" fill="url(#linear-gradient14)" stroke="#000" stroke-miterlimit="10" stroke-width="2"/>
  <path d="M2321.046,737.095v-56.673c0-9.936,2.974-17.888,8.923-23.858,5.948-5.97,13.869-8.955,23.763-8.955s17.388,2.9,22.611,8.699c5.224,5.8,7.836,14.136,7.836,25.01v55.777h-25.97v-55.777c0-5.33-1.898-7.996-5.692-7.996-3.669,0-5.502,2.666-5.502,7.996v55.777h-25.969Z" fill="url(#linear-gradient15)" stroke="#000" stroke-miterlimit="10" stroke-width="2"/>
  <path d="M2448.452,674.856v62.238h-25.969v-62.238h-19.894v-25.074h65.692v25.074h-19.83Z" fill="url(#linear-gradient16)" stroke="#000" stroke-miterlimit="10" stroke-width="2"/>
  <path d="M2529.742,647.608c12.366,0,22.974,4.499,31.822,13.496,8.849,8.998,13.273,19.766,13.273,32.303,0,12.751-4.457,23.582-13.369,32.494s-19.744,13.368-32.494,13.368c-12.665,0-23.475-4.478-32.43-13.433s-13.434-19.766-13.434-32.43c0-12.793,4.51-23.624,13.529-32.494,9.019-8.869,20.053-13.305,33.102-13.305ZM2528.975,673.321c-5.331,0-9.873,1.963-13.625,5.885-3.753,3.925-5.629,8.658-5.629,14.201s1.888,10.277,5.661,14.199c3.774,3.925,8.305,5.885,13.593,5.885,5.373,0,9.925-1.95,13.656-5.853,3.731-3.901,5.598-8.645,5.598-14.231s-1.866-10.331-5.598-14.232c-3.731-3.902-8.283-5.854-13.656-5.854Z" fill="url(#linear-gradient17)" stroke="#000" stroke-miterlimit="10" stroke-width="2"/>
  <path d="M2666.733,673.258v63.837h-25.969v-87.312h33.325c10.148,0,18.016,2.518,23.603,7.549,6.226,5.629,9.34,12.771,9.34,21.428,0,8.827-3.86,16.27-11.578,22.324l14.968,36.012h-27.249l-12.602-28.145v-22.451h2.047c5.458,0,8.188-2.345,8.188-7.037,0-4.135-3.156-6.204-9.467-6.204h-4.605Z" fill="url(#linear-gradient18)" stroke="#000" stroke-miterlimit="10" stroke-width="2"/>
  <path d="M2770.986,647.608c12.366,0,22.974,4.499,31.822,13.496,8.849,8.998,13.273,19.766,13.273,32.303,0,12.751-4.457,23.582-13.369,32.494s-19.744,13.368-32.494,13.368c-12.665,0-23.475-4.478-32.43-13.433s-13.434-19.766-13.434-32.43c0-12.793,4.51-23.624,13.529-32.494,9.019-8.869,20.053-13.305,33.102-13.305ZM2770.219,673.321c-5.331,0-9.873,1.963-13.625,5.885-3.753,3.925-5.629,8.658-5.629,14.201s1.888,10.277,5.661,14.199c3.774,3.925,8.305,5.885,13.593,5.885,5.373,0,9.925-1.95,13.656-5.853,3.731-3.901,5.598-8.645,5.598-14.231s-1.866-10.331-5.598-14.232c-3.731-3.902-8.283-5.854-13.656-5.854Z" fill="url(#linear-gradient19)" stroke="#000" stroke-miterlimit="10" stroke-width="2"/>
  <path d="M2836.988,649.782h25.969v51.876c0,4.052.65,6.748,1.951,8.092,1.301,1.343,3.87,2.015,7.708,2.015h1.343v25.33h-6.908c-9.467,0-16.845-2.761-22.131-8.283-5.289-5.522-7.932-13.187-7.932-22.996v-56.033Z" fill="url(#linear-gradient20)" stroke="#000" stroke-miterlimit="10" stroke-width="2"/>
  <path d="M2891.412,649.782h25.969v51.876c0,4.052.65,6.748,1.951,8.092,1.301,1.343,3.87,2.015,7.708,2.015h1.343v25.33h-6.908c-9.467,0-16.845-2.761-22.131-8.283-5.289-5.522-7.932-13.187-7.932-22.996v-56.033Z" fill="url(#linear-gradient21)" stroke="#000" stroke-miterlimit="10" stroke-width="2"/>
  <path d="M2989.012,647.608c12.366,0,22.974,4.499,31.822,13.496,8.849,8.998,13.273,19.766,13.273,32.303,0,12.751-4.457,23.582-13.369,32.494s-19.744,13.368-32.494,13.368c-12.665,0-23.475-4.478-32.43-13.433s-13.434-19.766-13.434-32.43c0-12.793,4.51-23.624,13.529-32.494,9.019-8.869,20.053-13.305,33.102-13.305ZM2988.244,673.321c-5.331,0-9.873,1.963-13.625,5.885-3.753,3.925-5.629,8.658-5.629,14.201s1.888,10.277,5.661,14.199c3.774,3.925,8.305,5.885,13.593,5.885,5.373,0,9.925-1.95,13.656-5.853,3.731-3.901,5.598-8.645,5.598-14.231s-1.866-10.331-5.598-14.232c-3.731-3.902-8.283-5.854-13.656-5.854Z" fill="url(#linear-gradient22)" stroke="#000" stroke-miterlimit="10" stroke-width="2"/>
  <text/>
</svg>