<?xml version="1.0" encoding="UTF-8"?>
<svg width="64" height="64" viewBox="0 0 64 64" xmlns="http://www.w3.org/2000/svg">
  <!-- Gradientes para el fuego -->
  <defs>
    <linearGradient id="fireGradient" x1="0%" y1="100%" x2="100%" y2="0%">
      <stop offset="0%" stop-color="#FF5500" />
      <stop offset="50%" stop-color="#FFA500" />
      <stop offset="100%" stop-color="#FFDD00" />
    </linearGradient>
    <filter id="glow" x="-20%" y="-20%" width="140%" height="140%">
      <feGaussianBlur stdDeviation="2" result="blur" />
      <feComposite in="SourceGraphic" in2="blur" operator="over" />
    </filter>
  </defs>
  
  <!-- Base del fuego -->
  <path d="M32,58 C17,58 14,45 14,40 C14,28 24,24 22,14 C22,14 28,21 26,30 C31,25 32,18 32,14 C32,14 38,21 36,30 C41,25 42,18 42,14 C42,14 48,21 46,30 C51,25 52,21 50,10 C50,10 60,20 50,40 C53,36 54,32 54,29 C54,29 60,35 50,50 C45,56 40,58 32,58 Z" fill="url(#fireGradient)" filter="url(#glow)">
    <animate attributeName="d" dur="1.5s" repeatCount="indefinite" values="
      M32,58 C17,58 14,45 14,40 C14,28 24,24 22,14 C22,14 28,21 26,30 C31,25 32,18 32,14 C32,14 38,21 36,30 C41,25 42,18 42,14 C42,14 48,21 46,30 C51,25 52,21 50,10 C50,10 60,20 50,40 C53,36 54,32 54,29 C54,29 60,35 50,50 C45,56 40,58 32,58 Z;
      M32,58 C17,58 15,46 15,41 C15,29 23,22 21,12 C21,12 27,19 25,28 C30,23 31,16 31,12 C31,12 39,20 37,29 C42,24 43,17 43,13 C43,13 49,20 47,29 C52,24 53,20 51,9 C51,9 61,21 51,41 C54,37 55,31 55,28 C55,28 59,36 49,51 C44,57 40,58 32,58 Z;
      M32,58 C17,58 14,45 14,40 C14,28 24,24 22,14 C22,14 28,21 26,30 C31,25 32,18 32,14 C32,14 38,21 36,30 C41,25 42,18 42,14 C42,14 48,21 46,30 C51,25 52,21 50,10 C50,10 60,20 50,40 C53,36 54,32 54,29 C54,29 60,35 50,50 C45,56 40,58 32,58 Z"
    />
  </path>
  
  <!-- Letra H en el centro del fuego -->
  <path d="M22,20 L22,44 L28,44 L28,34 L36,34 L36,44 L42,44 L42,20 L36,20 L36,28 L28,28 L28,20 Z" 
        fill="#FFFFFF" 
        stroke="#FF3D00" 
        stroke-width="1" />
</svg>
